<?xml version="1.0" encoding="UTF-8" standalone="no"?>
<!-- Generator: Adobe Illustrator 13.0.2, SVG Export Plug-In . SVG Version: 6.00 Build 14948)  -->

<svg
   xmlns:dc="http://purl.org/dc/elements/1.1/"
   xmlns:cc="http://creativecommons.org/ns#"
   xmlns:rdf="http://www.w3.org/1999/02/22-rdf-syntax-ns#"
   xmlns:svg="http://www.w3.org/2000/svg"
   xmlns="http://www.w3.org/2000/svg"
   xmlns:sodipodi="http://sodipodi.sourceforge.net/DTD/sodipodi-0.dtd"
   xmlns:inkscape="http://www.inkscape.org/namespaces/inkscape"
   version="1.1"
   id="g7718"
   x="0px"
   y="0px"
   width="304.7641"
   height="130.17799"
   viewBox="1.5 1.5 304.7641 130.17799"
   enable-background="new 1.5 1.5 720 486"
   xml:space="preserve"
   inkscape:version="0.48.4 r9939"
   sodipodi:docname="CC_BY.svg"
   inkscape:export-filename="/home/edwin/git/propagator/CC_BY.png"
   inkscape:export-xdpi="90"
   inkscape:export-ydpi="90"><metadata
     id="metadata27"><rdf:RDF><cc:Work
         rdf:about=""><dc:format>image/svg+xml</dc:format><dc:type
           rdf:resource="http://purl.org/dc/dcmitype/StillImage" /><dc:title></dc:title></cc:Work></rdf:RDF></metadata><defs
     id="defs25" /><sodipodi:namedview
     pagecolor="#ffffff"
     bordercolor="#666666"
     borderopacity="1"
     objecttolerance="10"
     gridtolerance="10"
     guidetolerance="10"
     inkscape:pageopacity="0"
     inkscape:pageshadow="2"
     inkscape:window-width="1538"
     inkscape:window-height="787"
     id="namedview23"
     showgrid="false"
     fit-margin-top="0"
     fit-margin-left="0"
     fit-margin-right="0"
     fit-margin-bottom="0"
     inkscape:zoom="1.2413652"
     inkscape:cx="282.8434"
     inkscape:cy="-101.05635"
     inkscape:window-x="0"
     inkscape:window-y="25"
     inkscape:window-maximized="1"
     inkscape:current-layer="g7718" /><g
     id="g5097"
     inkscape:export-filename="/Users/rebecca/Documents/creativecommons/marking/bumpers/bw/png/By_bw.png"
     inkscape:output_extension="org.inkscape.output.svg.inkscape"
     inkscape:export-ydpi="90"
     sodipodi:docbase="/Users/rebecca/Documents/creative_commons/videobumpers/simple/color"
     sodipodi:docname="By_bw.svg"
     sodipodi:version="0.32"
     inkscape:export-xdpi="90"
     inkscape:version="0.45+devel"
     transform="translate(-30.236,-16.696)" /><g
     id="g5099"
     transform="translate(-30.236,-16.696)" /><g
     id="g13"
     transform="translate(-120.236,-126.696)"
     style="fill:#1a1a1a"><g
       id="g7677"
       transform="translate(82.473109,1.8769e-6)"
       style="fill:#1a1a1a"><path
         id="path37"
         d="m 296.517,177.191 c 0,-2.319 -1.882,-4.197 -4.197,-4.197 h -26.587 c -2.318,0 -4.197,1.878 -4.197,4.197 v 26.589 h 7.416 v 31.484 h 20.149 V 203.78 h 7.416 v -26.589 l 0,0 z"
         inkscape:connector-curvature="0"
         style="fill:#1a1a1a" /><circle
         id="circle39"
         sodipodi:ry="9.0950003"
         sodipodi:rx="9.0950003"
         sodipodi:cy="160.39999"
         sodipodi:cx="279.026"
         cx="279.026"
         cy="160.39999"
         r="9.0950003"
         d="m 288.121,160.39999 c 0,5.02303 -4.07197,9.095 -9.095,9.095 -5.02303,0 -9.095,-4.07197 -9.095,-9.095 0,-5.02303 4.07197,-9.095 9.095,-9.095 5.02303,0 9.095,4.07197 9.095,9.095 z"
         style="fill:#1a1a1a" /><path
         id="path41"
         d="m 278.945,128.285 c -18.007,0 -33.247,6.282 -45.72,18.849 -12.801,13 -19.198,28.384 -19.198,46.151 0,17.766 6.397,33.043 19.198,45.826 12.798,12.783 28.039,19.174 45.72,19.174 17.896,0 33.408,-6.443 46.533,-19.337 12.364,-12.239 18.549,-27.462 18.549,-45.664 0,-18.202 -6.292,-33.585 -18.874,-46.151 -12.584,-12.566 -27.986,-18.848 -46.208,-18.848 z m 0.162,11.697 c 14.753,0 27.279,5.199 37.586,15.601 10.412,10.292 15.617,22.857 15.617,37.701 0,14.949 -5.097,27.354 -15.294,37.213 -10.739,10.616 -23.375,15.924 -37.909,15.924 -14.536,0 -27.064,-5.252 -37.585,-15.761 -10.521,-10.509 -15.782,-22.967 -15.782,-37.376 0,-14.409 5.315,-26.976 15.945,-37.701 10.198,-10.401 22.669,-15.601 37.422,-15.601 z"
         inkscape:connector-curvature="0"
         style="fill:#1a1a1a" /></g></g><g
     id="g2552"
     style="fill:#000000"
     transform="translate(-212.236,-126.696)"><path
       id="path2554"
       d="m 278.648,128.196 c -17.835,0 -33.527,6.6 -45.653,18.903 -12.482,12.663 -19.259,29.068 -19.259,46.188 0,17.296 6.598,33.346 19.082,45.829 12.483,12.484 28.71,19.258 45.83,19.258 17.118,0 33.704,-6.775 46.543,-19.437 12.127,-11.948 18.546,-27.819 18.546,-45.652 0,-17.654 -6.419,-33.704 -18.725,-46.009 -12.484,-12.48 -28.532,-19.08 -46.364,-19.08 z m 0.177,11.77 c 14.624,0 27.643,5.527 37.806,15.692 9.986,9.986 15.335,23.183 15.335,37.626 0,14.623 -5.172,27.461 -15.156,37.271 -10.523,10.344 -24.075,15.872 -37.984,15.872 -14.086,0 -27.283,-5.528 -37.448,-15.693 -10.165,-10.165 -15.871,-23.539 -15.871,-37.448 0,-14.088 5.706,-27.461 15.871,-37.805 9.985,-10.165 22.825,-15.515 37.447,-15.515 z"
       inkscape:connector-curvature="0"
       style="fill:#000000" /><path
       id="path2556"
       d="m 277.987,182.471 c -3.677,-6.704 -9.95,-9.373 -17.231,-9.373 -10.599,0 -19.034,7.497 -19.034,20.188 0,12.905 7.931,20.188 19.394,20.188 7.355,0 13.629,-4.038 17.087,-10.165 l -8.073,-4.11 c -1.804,4.326 -4.544,5.624 -8.003,5.624 -5.985,0 -8.725,-4.975 -8.725,-11.535 0,-6.561 2.309,-11.538 8.725,-11.538 1.729,0 5.19,0.939 7.21,5.263 l 8.65,-4.542 z"
       inkscape:connector-curvature="0"
       style="fill:#000000" /><path
       id="path2558"
       d="m 315.536,182.471 c -3.677,-6.704 -9.95,-9.373 -17.231,-9.373 -10.599,0 -19.034,7.497 -19.034,20.188 0,12.905 7.931,20.188 19.396,20.188 7.354,0 13.627,-4.038 17.088,-10.165 l -8.074,-4.11 c -1.804,4.326 -4.542,5.624 -8.003,5.624 -5.985,0 -8.726,-4.975 -8.726,-11.535 0,-6.561 2.31,-11.538 8.726,-11.538 1.729,0 5.19,0.939 7.21,5.263 l 8.648,-4.542 z"
       inkscape:connector-curvature="0"
       style="fill:#000000" /></g></svg>